<svg xmlns="http://www.w3.org/2000/svg" viewBox="0 0 271.63 206.36"><defs><style>.cls-1{fill:#fff;}</style></defs><g id="Layer_2" data-name="Layer 2"><g id="Layer_2-2" data-name="Layer 2"><g id="Comparisonator_Logo" data-name="Comparisonator Logo"><path id="Sörf_Tahtası" data-name="Sörf Tahtası" class="cls-1" d="M63.16,139.8c-13.72-7.2,31.06-15.88,40.57-17.2,17.25-2.79,34.53-3,51.82-2.16a189.7,189.7,0,0,1,38.73,6.22A41.13,41.13,0,0,1,206.41,132q4.83,4.16,1.41,7.49l-1.06-2.77c-.58-1.54-2-2.5-3.73-3.3a6.48,6.48,0,0,0-4.4.35c-.91.53-3.06,2.63-2.29,3.88a3.21,3.21,0,0,1,4.69-.81c1.59,1.13,2,2.55.53,4.37a5.36,5.36,0,0,1-5.23,1.66,32.08,32.08,0,0,1-12-6.12l-4.84-3.79a26.28,26.28,0,0,0-16.28-6,17.81,17.81,0,0,0-9.1,1.88,7.51,7.51,0,0,0-3.79,4.43,4.22,4.22,0,0,1,3.94-.29c1.15.89,2.17,1.88,2.26,3.23.19,2.29-1.56,3.43-4.1,3.89a10.16,10.16,0,0,1-4.93-.2L143.06,138c-2.46-1.54-5.57-1.82-9-1.59a13,13,0,0,0-6.63,3.64,12.25,12.25,0,0,0-2.77,7c.11,1.18.1,2,.52,2.34a8.2,8.2,0,0,1,3-3.86,9.41,9.41,0,0,1,6.76-2,6.29,6.29,0,0,1,5,3.83q1.22,3.72-.32,4.26a6.27,6.27,0,0,0-2.55-3.51,5.21,5.21,0,0,0-5.8-.37,4.93,4.93,0,0,0-2.51,4.48c2.88-2.08,5-1.23,6.7,1.64a277.71,277.71,0,0,1-35-3.39c-7.23-1-15-3.22-23.48-5.33C68.34,143,63,140,63.16,139.8Zm127.47,7.52h0l-.64-.19a24.29,24.29,0,0,1-7.4-3.72l-4.28-3.17a7.37,7.37,0,0,0-5.13-1.25c-2,.2-5,2.78-3.66,5,4.2-3.55,7.34,1.89,3.25,3.43-1.17.49-2.91-.55-4.6-2.12-3-2.75-6.58-4.15-10.57-3.23a8.51,8.51,0,0,0-4.17,2.57q-2.19,2.31-1,4.33a4.69,4.69,0,0,1,3.25-2.31c1.46-.22,2.67-.14,3.51.77,1.59,2-.15,3.83-2,4.74-.25.36-.25.53,0,.52a259.3,259.3,0,0,0,33.37-5.34Z"/><path id="Sörf_Tahtası-2" data-name="Sörf Tahtası" class="cls-1" d="M211.56,127.14c.37,15.5-29-19.47-34.73-27.13-10.81-13.72-19.38-28.74-27-44.26a188.9,188.9,0,0,1-13.36-36.88,41.29,41.29,0,0,1-1.25-13.19Q136.45-.56,141,.81l-1.91,2.27c-1.07,1.27-1.2,3-1.07,4.86a6.42,6.42,0,0,0,2.44,3.67c.9.54,3.78,1.4,4.5.12A3.2,3.2,0,0,1,142,8c.21-1.95,1.27-3,3.57-2.59a5.32,5.32,0,0,1,4,3.76A32,32,0,0,1,150,22.66l-1,6.06a26.15,26.15,0,0,0,2.69,17.12,18,18,0,0,0,6.06,7.06,7.5,7.5,0,0,0,5.71,1.15,4.22,4.22,0,0,1-2.17-3.31c.22-1.43.6-2.81,1.74-3.54,1.91-1.27,3.75-.3,5.38,1.7a10.12,10.12,0,0,1,2.24,4.41l.47,4.84c-.16,2.9,1.11,5.74,3,8.6a13,13,0,0,0,6.39,4,12,12,0,0,0,7.47-1c1-.66,1.72-1.06,1.79-1.59a8.24,8.24,0,0,1-4.82-.74,9.5,9.5,0,0,1-5-4.95,6.27,6.27,0,0,1,.95-6.21c1.79-1.92,3.08-2.51,3.89-1.79A6.33,6.33,0,0,0,183,58.45a5.23,5.23,0,0,0,2.48,5.26,4.92,4.92,0,0,0,5.14,0c-3.22-1.51-3.51-3.81-1.82-6.65a277.24,277.24,0,0,1,14,32.25c2.62,6.82,4.47,14.68,6.74,23.12,2.31,8.6,2.3,14.72,2,14.68ZM156.27,12h0l.13.64a24.1,24.1,0,0,1,.34,8.27l-.69,5.28a7.4,7.4,0,0,0,1.4,5.11c1.14,1.64,4.86,3,6.13.78-5.14-1.95-1.92-7.34,1.42-4.5,1,.79.93,2.81.38,5.05-1,3.92-.45,7.77,2.3,10.81A8.59,8.59,0,0,0,172,45.87c2.06.54,3.48.11,4.25-1.27a4.7,4.7,0,0,1-3.6-1.72c-.9-1.17-1.41-2.26-1-3.45,1-2.38,3.42-1.73,5.12-.55.43,0,.58,0,.46-.26A261.06,261.06,0,0,0,156.27,12Z"/><path id="Sörf_Tahtası-3" data-name="Sörf Tahtası" class="cls-1" d="M128.08,1.12C141-7.49,127.12,36,123.73,45c-5.82,16.48-13.92,31.74-23,46.51a189,189,0,0,1-24,31,41.63,41.63,0,0,1-10.47,8.1q-6,2.27-7.25-2.35l2.94.4c1.63.23,3.19-.59,4.68-1.69a6.45,6.45,0,0,0,1.8-4c0-1.05-.84-4-2.31-3.87a3.19,3.19,0,0,1-1.53,4.5c-1.76.86-3.19.51-4.1-1.63a5.32,5.32,0,0,1,1-5.38A31.9,31.9,0,0,1,72.68,109l5.65-2.44a26.16,26.16,0,0,0,13-11.43,17.91,17.91,0,0,0,2.71-8.9A7.49,7.49,0,0,0,92,80.78a4.23,4.23,0,0,1-1.63,3.6c-1.33.58-2.7,1-3.92.43-2.1-.93-2.26-3-1.45-5.46a10,10,0,0,1,2.55-4.23l3.83-3c2.53-1.42,4.27-4,5.68-7.11a12.89,12.89,0,0,0,0-7.56,12.08,12.08,0,0,0-4.82-5.79c-1.1-.47-1.82-.89-2.3-.67a8.29,8.29,0,0,1,2,4.47,9.53,9.53,0,0,1-1.51,6.89,6.3,6.3,0,0,1-5.74,2.52q-3.89-.73-3.6-2.33A6.27,6.27,0,0,0,85.31,62a5.2,5.2,0,0,0,3.11-4.91,4.92,4.92,0,0,0-2.73-4.35c.45,3.53-1.34,5-4.65,5.11a277,277,0,0,1,19.79-29.07c4.36-5.86,10-11.61,15.94-18.06S128,.88,128.1,1.14ZM60.38,109.38h0l.48-.46a24.4,24.4,0,0,1,6.81-4.71L72.51,102a7.38,7.38,0,0,0,3.55-3.91c.77-1.84,0-5.72-2.61-5.59,1.1,5.39-5.17,5.53-4.56,1.2.13-1.27,1.87-2.28,4.06-3,3.83-1.28,6.8-3.78,7.9-7.73a8.41,8.41,0,0,0-.26-4.89q-.95-3-3.35-2.9a4.64,4.64,0,0,1,.48,3.95c-.5,1.39-1.15,2.41-2.36,2.73-2.56.44-3.29-2-3.19-4-.19-.39-.34-.47-.46-.25A262.54,262.54,0,0,0,60.38,109.38Z"/><path id="Girdap" class="cls-1" d="M131.23,97.07c-3.73-2.16-4.17-6.06-3.46-9s4.85-5.32,7.8-4.61a11.84,11.84,0,0,1,3.63,1.88.55.55,0,0,0,.74,0L144,81.23a.54.54,0,0,0,0-.78h0a13.41,13.41,0,0,0-22.26,7.17c-1.42,7,3,13.65,9.75,16.38a18,18,0,0,0,15.71-1.59c5-3.41,12-8.52,10-21.32C156,73.61,149.53,67,141.4,65a25.58,25.58,0,0,0-12,49.74,28.4,28.4,0,0,0,11.89.52.54.54,0,0,0,.44-.57l-.37-4.86a.55.55,0,0,0-.59-.5h-.05c-2.76.46-6.72-.25-9.46-.91-9.72-2.34-15.8-13.08-13.45-22.79s13.9-18.16,23-14.06c8,3.6,13.34,12.85,8,20.3C142.33,100.9,135.71,99.67,131.23,97.07Z"/></g><path class="cls-1" d="M18.11,177a10.37,10.37,0,0,1,3.72,6H17A6.18,6.18,0,0,0,14.73,180,6.53,6.53,0,0,0,11,179a5.95,5.95,0,0,0-5.53,3.49,9.94,9.94,0,0,0,0,7.86A6,6,0,0,0,11,193.81a6.53,6.53,0,0,0,3.77-1.07A6.18,6.18,0,0,0,17,189.83h4.79a10.34,10.34,0,0,1-3.72,6A11.12,11.12,0,0,1,11,198a11.18,11.18,0,0,1-5.77-1.47,10,10,0,0,1-3.89-4.12,14,14,0,0,1,0-12.06,10.09,10.09,0,0,1,3.87-4.13A11.18,11.18,0,0,1,11,174.76,11.12,11.12,0,0,1,18.11,177Z"/><path class="cls-1" d="M38.24,180.78A8.05,8.05,0,0,1,41.53,184a9.77,9.77,0,0,1,1.19,4.9,9.61,9.61,0,0,1-1.19,4.88,8.21,8.21,0,0,1-3.29,3.19,10.44,10.44,0,0,1-9.41,0,8.18,8.18,0,0,1-3.28-3.19,9.52,9.52,0,0,1-1.2-4.88,9.67,9.67,0,0,1,1.2-4.9,8,8,0,0,1,3.28-3.18,9.86,9.86,0,0,1,4.71-1.1A9.85,9.85,0,0,1,38.24,180.78ZM30.3,185a6.42,6.42,0,0,0,0,7.8,4.57,4.57,0,0,0,6.47,0,6.38,6.38,0,0,0,0-7.8,4.57,4.57,0,0,0-6.47,0Z"/><path class="cls-1" d="M73.92,181.67a8.07,8.07,0,0,1,1.89,5.74v10.41H71.28v-9.9a4.45,4.45,0,0,0-1-3.18,3.77,3.77,0,0,0-2.9-1.12,4,4,0,0,0-3,1.2,4.92,4.92,0,0,0-1.13,3.49v9.51H58.63v-9.9a4.45,4.45,0,0,0-1.05-3.18,3.75,3.75,0,0,0-2.89-1.12,4,4,0,0,0-3,1.2,4.87,4.87,0,0,0-1.13,3.49v9.51H46V179.9h4.56v3.4a5.48,5.48,0,0,1,2.24-2.7,6.63,6.63,0,0,1,3.58-1,6.81,6.81,0,0,1,3.77,1,6.38,6.38,0,0,1,2.41,3,7.13,7.13,0,0,1,11.4-2Z"/><path class="cls-1" d="M94.6,180.78A7.45,7.45,0,0,1,97.43,184a12.28,12.28,0,0,1,0,9.8A7.54,7.54,0,0,1,94.6,197a7.75,7.75,0,0,1-4.08,1.1A6.67,6.67,0,0,1,86.66,197a5.86,5.86,0,0,1-2.28-2.89v12.29H79.82V179.9h4.56v3.72a5.84,5.84,0,0,1,2.28-2.88,6.8,6.8,0,0,1,3.86-1.06A7.66,7.66,0,0,1,94.6,180.78Zm-8.91,4.28a5.27,5.27,0,0,0-1.34,3.8,5.21,5.21,0,0,0,1.34,3.77,4.89,4.89,0,0,0,6.84,0,6.26,6.26,0,0,0,0-7.61,4.86,4.86,0,0,0-6.84,0Z"/><path class="cls-1" d="M112.58,180.74a5.88,5.88,0,0,1,2.3,2.88V179.9h4.52v17.92h-4.52v-3.75a5.9,5.9,0,0,1-2.3,2.89,6.75,6.75,0,0,1-3.88,1.09,7.75,7.75,0,0,1-4.08-1.1,7.54,7.54,0,0,1-2.83-3.19,12.28,12.28,0,0,1,0-9.8,7.45,7.45,0,0,1,2.83-3.18,7.66,7.66,0,0,1,4.08-1.1A6.89,6.89,0,0,1,112.58,180.74Zm-5.89,4.31a6.26,6.26,0,0,0,0,7.61,4.89,4.89,0,0,0,6.84,0,5.21,5.21,0,0,0,1.35-3.77,5.27,5.27,0,0,0-1.35-3.8,4.86,4.86,0,0,0-6.84,0Z"/><path class="cls-1" d="M130.75,180.63a7,7,0,0,1,3.69-1v4.89h-1.32q-5,0-5,4.66v8.63h-4.56V179.9h4.56v3.43A7.62,7.62,0,0,1,130.75,180.63Z"/><path class="cls-1" d="M137.22,173a3.32,3.32,0,0,1,4.08,0,2.27,2.27,0,0,1,.77,1.79,2.24,2.24,0,0,1-.77,1.76,3.32,3.32,0,0,1-4.08,0,2.27,2.27,0,0,1-.77-1.76A2.31,2.31,0,0,1,137.22,173Zm4.3,6.93v17.92H137V179.9Z"/><path class="cls-1" d="M157.08,181.33a7.19,7.19,0,0,1,2.46,4.39h-4.27a3.36,3.36,0,0,0-3.53-2.84,2.7,2.7,0,0,0-1.81.55,1.84,1.84,0,0,0-.64,1.49,1.51,1.51,0,0,0,.51,1.19,3.77,3.77,0,0,0,1.3.71c.51.18,1.26.38,2.23.62a23.09,23.09,0,0,1,3.31.95,5.49,5.49,0,0,1,2.2,1.59,4.33,4.33,0,0,1,.92,2.92,4.5,4.5,0,0,1-1.79,3.72,7.58,7.58,0,0,1-4.84,1.43,9.17,9.17,0,0,1-5.59-1.57A6.65,6.65,0,0,1,145,192h4.37a3,3,0,0,0,1.16,2.08,4.22,4.22,0,0,0,2.62.76,2.52,2.52,0,0,0,1.78-.56,1.92,1.92,0,0,0,.62-1.47,1.61,1.61,0,0,0-.54-1.26,3.41,3.41,0,0,0-1.32-.75c-.53-.17-1.28-.38-2.25-.61a25.33,25.33,0,0,1-3.25-.92,5.24,5.24,0,0,1-2.13-1.51,4.19,4.19,0,0,1-.89-2.84,4.67,4.67,0,0,1,1.77-3.79,7.57,7.57,0,0,1,4.92-1.45A7.91,7.91,0,0,1,157.08,181.33Z"/><path class="cls-1" d="M176.14,180.78a8,8,0,0,1,3.29,3.18,9.77,9.77,0,0,1,1.19,4.9,9.61,9.61,0,0,1-1.19,4.88,8.14,8.14,0,0,1-3.29,3.19,10.44,10.44,0,0,1-9.41,0,8.18,8.18,0,0,1-3.28-3.19,9.52,9.52,0,0,1-1.2-4.88,9.67,9.67,0,0,1,1.2-4.9,8,8,0,0,1,3.28-3.18,10.61,10.61,0,0,1,9.41,0ZM168.21,185a6.38,6.38,0,0,0,0,7.8,4.56,4.56,0,0,0,6.46,0,6.38,6.38,0,0,0,0-7.8,4.56,4.56,0,0,0-6.46,0Z"/><path class="cls-1" d="M199.48,181.68a8.24,8.24,0,0,1,1.84,5.73v10.41h-4.53v-9.9a4.69,4.69,0,0,0-1.09-3.31,3.92,3.92,0,0,0-3-1.18,4,4,0,0,0-3.11,1.26,5.18,5.18,0,0,0-1.16,3.62v9.51h-4.56V179.9h4.56v3.59a5.71,5.71,0,0,1,2.34-2.83,7,7,0,0,1,3.77-1A6.35,6.35,0,0,1,199.48,181.68Z"/><path class="cls-1" d="M216.23,180.74a5.82,5.82,0,0,1,2.3,2.88V179.9h4.53v17.92h-4.53v-3.75a5.85,5.85,0,0,1-2.3,2.89,6.75,6.75,0,0,1-3.88,1.09,7.69,7.69,0,0,1-4.07-1.1,7.41,7.41,0,0,1-2.83-3.19,12.28,12.28,0,0,1,0-9.8,7.33,7.33,0,0,1,2.83-3.18,7.6,7.6,0,0,1,4.07-1.1A6.89,6.89,0,0,1,216.23,180.74Zm-5.88,4.31a6.22,6.22,0,0,0,0,7.61,4.46,4.46,0,0,0,3.42,1.38,4.53,4.53,0,0,0,3.42-1.41,5.25,5.25,0,0,0,1.34-3.77,5.31,5.31,0,0,0-1.34-3.8,4.53,4.53,0,0,0-3.42-1.41A4.44,4.44,0,0,0,210.35,185.05Z"/><path class="cls-1" d="M236.77,193.91v3.91h-2.39a6.61,6.61,0,0,1-4.61-1.46c-1.07-1-1.6-2.58-1.6-4.85v-7.76h-2.5V179.9h2.5v-4.43h4.56v4.43h4v3.85h-4v7.83a2.56,2.56,0,0,0,.51,1.81,2.46,2.46,0,0,0,1.75.52Z"/><path class="cls-1" d="M253,180.78A8,8,0,0,1,256.3,184a9.67,9.67,0,0,1,1.2,4.9,9.52,9.52,0,0,1-1.2,4.88,8.18,8.18,0,0,1-3.28,3.19,10.44,10.44,0,0,1-9.41,0,8.12,8.12,0,0,1-3.28-3.19,9.52,9.52,0,0,1-1.2-4.88,9.67,9.67,0,0,1,1.2-4.9,8,8,0,0,1,3.28-3.18,10.61,10.61,0,0,1,9.41,0ZM245.08,185a6.38,6.38,0,0,0,0,7.8,4.57,4.57,0,0,0,6.47,0,6.42,6.42,0,0,0,0-7.8,4.57,4.57,0,0,0-6.47,0Z"/><path class="cls-1" d="M267.94,180.63a7,7,0,0,1,3.69-1v4.89H270.3q-5,0-5,4.66v8.63h-4.56V179.9h4.56v3.43A7.54,7.54,0,0,1,267.94,180.63Z"/></g></g></svg>